<?xml version="1.0" encoding="UTF-8"?><svg id="Layer_1" xmlns="http://www.w3.org/2000/svg" viewBox="0 0 263.2 509.88"><defs><style>.cls-1{fill:#8a6bd6;}.cls-2{fill:#d2c5ed;}.cls-3{fill:#704acd;}.cls-4{fill:#321b6c;}</style></defs><polyline class="cls-1" points="17.02 416.21 7.99 432.02 17.02 471.55 40.17 497.53 81.4 504.3 185.3 504.3 227.09 495.27 255.89 460.26 255.89 446.7 255.89 411.13"/><rect class="cls-3" x="6.26" y="371.01" width="244.8" height="24.56" rx="12.28" ry="12.28"/><rect class="cls-2" x="6.26" y="318.01" width="244.8" height="24.56" rx="12.28" ry="12.28"/><path class="cls-4" d="M245.91,387.81c21.09,2,21.68,34.49,1.87,38.87l-232.11.39c-3.34,1.5-2.63,11.24-2.5,14.49,1.23,30.59,19.46,52.84,50.72,55.28,44.74-1.93,91.54,2.5,136.04,0,23.73-1.33,45.35-18.57,49.58-42.42,1.04-5.84-.44-19.18,9.63-15.33,4.09,1.56,4.17,5.07,4.01,8.98-1.34,32.36-29.13,59.55-61.22,61.27H61.39c-27.29-2.02-50.94-20.93-58.09-47.41-2.43-9.01-4.82-30.54-.55-38.77,1.38-2.65,3.63-4.7,5.81-6.64-1.14-3.82-1.41-7.74.01-11.54.67-1.8,2.02-2.94,2.59-4.65-5.78.39-10.43.03-11.02-6.73-.32-3.68.44-13.53,1.63-16.91,2.17-6.19,7.76-11.67,14.62-11.88l230.3-.2c4.41-1.38,4.23-12.96-1.27-13.29H14.92c-8.84-1.36-14.15-9.74-14.77-18.22-.29-3.97-.05-10.32,0-14.5.25-20.87,3.75-39.44,14.62-57.42,18.46-30.56,52.51-45.97,86.9-50.85-.05-.61-.69-.84-1.15-1.09-7.05-3.85-17.75-6.87-25.53-10.47-22.02-10.21-67.58-34.23-55.91-64.77,5.69-14.91,17.16-16.22,29.93-8.25l12.66,8.08c-9.59-17.86-27.06-50.07-14.91-69.66,4.53-7.31,15.46-12.67,23.93-10.6,11.72,2.86,21.78,19.23,27.24,29.26l9.23,18.51-1.52-22.23c.2-19.77-1.1-41.41,5.78-60.26,4.54-12.46,15.98-25.24,29.69-15.22,21.27,15.54,17.12,67.56,16.05,90.96-.09,1.91.04,3.84,0,5.74l13.79-25.96c8.74-12.88,18.45-26.49,35.84-18.92,24.45,10.65,12.17,44.77,3.8,62.56-2.51,5.33-5.93,10.32-7.92,15.82,12.13-7.66,27.98-21.96,39.41-5.17,18.77,27.58-19.94,53.04-40.47,63.86-12.56,6.61-25.47,11.01-38.27,16.74-.56.25-1.73.36-1.67,1.07,39.05,5.75,75.7,24.7,92.08,62.17,5.74,13.13,9.66,32.27,8.93,46.61-.33,6.52-1.38,9.21-8.25,9.75H42.89c-4.5-.07-7.76-2.89-7.73-7.52H13.16c-.48,3.9-1.92,15.39,2.51,17.24l230.68.32c21,2.19,21.14,35.58.55,38.43H17.4c-4.71.54-4.9,6.81-4.74,10.51h233.25ZM132.16,174.81c4.77-18.58,7.71-37.73,9.94-56.81,3.03-25.97,7.58-72.63-3.01-96.37-3.06-6.86-7.34-13.27-13.03-4.17-13.53,21.67-6.69,82.31-3.33,108.03,1.74,13.34,4,36.02,8.46,48.04.2.53.21,1.2.97,1.28ZM123.16,203.3c-3.37-15.06-5.57-30.03-9.87-44.88-6.84-23.67-17.25-54.7-29.73-75.77-3.15-5.32-10.85-18.1-18.03-16.74-15.87,3-8.97,25.35-5.25,35.52,6.44,17.58,18.3,36.15,28.97,51.53,3.74,5.4,11.92,14.43,14.43,19.57,3.31,6.78-3.43,12.43-9.69,8.69-14.39-13.86-28.46-29.11-44.97-40.53-2.29-1.58-12.06-8.09-14.35-7.15-1.18.49-3.46,4.32-3.87,5.65-5.31,16.93,21.75,33.41,34.02,40.2,9.29,5.13,19.52,9.63,29.35,13.65,3.37,1.38,27.75,11.18,28.98,10.26ZM141.16,203.3c24.54-8.38,51.42-17.94,72.66-33.09,10.9-7.77,28.25-23.13,15.55-36.83-4.24-1.03-23.24,13.88-27.21,17.16-7.38,6.08-14.66,12.83-21.5,19.5-2.63,2.57-8.79,10.4-11.31,11.69-5.84,3-12.28-2.59-9.1-9.1,2.82-5.78,11.24-15.21,15.33-21.17,10.61-15.47,22.08-33.36,28.47-51.03,3.55-9.82,10.08-32.15-5.75-34.52-7.4-1.11-15.51,12.44-18.71,18.06-12.18,21.42-23.17,52.46-29.66,76.34-3.83,14.08-5.33,28.8-8.75,43ZM117.53,238.43c-4.6.78-8,4.92-5.1,9.36,4.39,6.71,22.5,8.1,22.77-.72.23-7.41-12.04-9.59-17.67-8.63ZM195.53,258.93c-9.17,1.54-3.66,11.09,2.29,13.97,11.48,5.56,22.87-2.03,11.3-10.8-3.87-2.93-8.76-3.98-13.59-3.17ZM60.55,266.44c-5.48.51-15.87,5.71-14.17,12.37,2.35,9.21,26.12,1.6,22.5-8.98-1-2.92-5.66-3.64-8.33-3.39ZM135.03,276.43c-5.06.79-14.85,7.12-11.8,13.07,4.11,8.01,24.49.08,22.33-9.33-.93-4.06-7.26-4.25-10.52-3.73Z"/><path class="cls-1" d="M141.16,203.3c3.42-14.2,4.92-28.92,8.75-43,6.49-23.88,17.49-54.92,29.66-76.34,3.2-5.62,11.3-19.17,18.71-18.06,15.83,2.37,9.3,24.7,5.75,34.52-6.39,17.68-17.86,35.56-28.47,51.03-4.09,5.96-12.51,15.4-15.33,21.17-3.18,6.52,3.26,12.11,9.1,9.1,2.51-1.29,8.67-9.13,11.31-11.69,6.84-6.67,14.12-13.42,21.5-19.5,3.97-3.28,22.98-18.19,27.21-17.16,12.7,13.7-4.65,29.05-15.55,36.83-21.24,15.14-48.12,24.71-72.66,33.09Z"/><path class="cls-1" d="M123.16,203.3c-1.23.92-25.62-8.88-28.98-10.26-9.84-4.02-20.07-8.51-29.35-13.65-12.28-6.79-39.33-23.27-34.02-40.2.42-1.33,2.69-5.17,3.87-5.65,2.28-.94,12.06,5.57,14.35,7.15,16.51,11.41,30.58,26.67,44.97,40.53,6.26,3.74,13-1.91,9.69-8.69-2.51-5.14-10.69-14.17-14.43-19.57-10.66-15.38-22.52-33.95-28.97-51.53-3.73-10.17-10.63-32.52,5.25-35.52,7.18-1.36,14.88,11.42,18.03,16.74,12.48,21.07,22.89,52.1,29.73,75.77,4.3,14.85,6.49,29.82,9.87,44.88Z"/><path class="cls-1" d="M132.16,174.81c-.76-.08-.77-.74-.97-1.28-4.46-12.03-6.71-34.71-8.46-48.04-3.36-25.71-10.2-86.36,3.33-108.03,5.68-9.1,9.96-2.69,13.03,4.17,10.59,23.73,6.04,70.4,3.01,96.37-2.23,19.08-5.17,38.23-9.94,56.81Z"/><path class="cls-1" d="M117.53,238.43c5.64-.96,17.9,1.22,17.67,8.63-.27,8.82-18.38,7.43-22.77.72-2.9-4.44.49-8.57,5.1-9.36Z"/><path class="cls-1" d="M60.55,266.44c2.67-.25,7.33.47,8.33,3.39,3.63,10.58-20.14,18.2-22.5,8.98-1.7-6.66,8.68-11.87,14.17-12.37Z"/><path class="cls-1" d="M135.03,276.43c3.26-.51,9.59-.32,10.52,3.73,2.16,9.41-18.22,17.34-22.33,9.33-3.05-5.94,6.75-12.27,11.8-13.07Z"/><path class="cls-1" d="M195.53,258.93c4.82-.81,9.71.24,13.59,3.17,11.58,8.76.19,16.36-11.3,10.8-5.95-2.88-11.45-12.43-2.29-13.97Z"/><g id="iuwpq8.tif"><path d="M.4,310.89c1.03-18.9,6.73-38.39,17.56-54.07,19.18-27.78,51.61-41.59,84.23-46.28-2.9-2.33-7.42-3.28-10.97-4.74-22.52-9.28-64.13-27.83-72.09-52.68-2.7-8.45-2.03-16.52,3.02-23.9,8.37-12.24,17.54-8.5,28.48-2.13,1.35.78,10.66,7.53,11.14,7.07-4.04-8.34-8.82-16.3-12.22-24.96-7.23-18.42-13.72-48.21,12.11-54.76,19.64-4.98,33.92,23.65,40.95,38.12,1.59,3.28,2.7,7.45,5.06,10.16-1.81-20.15-3.33-41.44-.93-61.59,1.71-14.41,9.14-47.06,30.22-39.34,22.45,8.22,21.63,60.45,21.13,79.74l-1.51,19.7c1.29.25.87-.27,1.25-.97,9.19-17.06,23.26-56.35,49.41-43.97,22.56,10.68,12.14,42.03,4.31,59.26-2.69,5.93-6.44,11.59-9.09,17.36-.28.6-.66,1.02-.47,1.77,11.51-7.28,27.9-22.22,39.12-6.45,12.67,17.82.56,35.87-13.67,47.64-18.83,15.58-42.01,24.32-64.36,33.46-.59.24-2,.52-2.01,1.22,47.2,6.72,88.72,33.14,98.64,82.28,1.63,8.08,3.6,23.33,2.04,31.18-.39,1.95-2.03,3.51-3.86,4.12l-216.83.25c-4.51-.12-7.08-6.75-4.5-10.02.46-.58,3.05-2.47,3.51-2.47h209.32c.75-44.1-27.09-75.21-67.86-87.61-56.09-17.06-145.45-5.87-164.52,59.55-4.44,15.24-3.85,30.54-4.15,46.3.35,2.43,1.82,4.71,4.37,5.11l184-.28c14.83,1.74,31.2-.97,45.93.38,19.26,1.76,19.58,35.22-.07,37.91l-231.21.31c-3.24,2.37-3.27,6.21-2.93,9.9l.4.6c1.31.92,6.97-.2,8.76-.18,69.56.61,139.44-.46,208.98.09,5.48.04,17.07-.42,21.45,1.9,14.25,7.53,11.72,33.34-4.96,36.3l-231.24.28c-4.48,1.36-3.63,10.78-3.49,14.52,1.25,32,20.37,54.52,53.14,56.16,45.4,2.27,93.12-1.29,138.67-.58,22.2-2.94,41.36-20.46,45.08-42.75.56-3.38.25-6.72.68-9.8.97-6.9,11.05-7.43,12.31.07.34,2.04-.17,6.12-.44,8.31-3.91,31.35-30.2,55.02-61.54,56.74-45.26,2.49-92.76-1.92-138.26,0-37.13-3.26-60.1-29.95-61.62-66.64-.49-11.83-.36-23.26,12.47-28.01,71.99-1.69,144.26-.21,216.36-.74,4.51.38,10.44,1.11,14.9.48,6.18-.88,6.62-10.18,2.17-13.57l-241.9-.6c-2.85-.93-3.68-3.12-4.48-5.76v-2c1.16-3.45.15-7.55.55-11.18.9-8.16,7.35-15.51,15.73-16.22l228.99-.04c5.82-.95,5.07-12.86,0-13.53l-229.55.02c-6.38-.63-11.96-5.42-14.11-11.34-.89-2.46-.88-4.73-1.61-7.13v-2c.83-.52.5-1.89.51-2.74.03-3.1.38-6.84-.51-9.74.1-2.48-.13-5.01,0-7.49ZM132.12,176.6c5.31-18.77,8.15-38.32,10.42-57.72,2.7-23.05,8.59-84.13-6.01-102.19-5.06-6.26-8.14-3.72-11.48,2.33-10,18.14-7.66,58.26-5.9,78.96,1.9,22.37,5.26,55.03,11.72,76.13.21.68.44,2.39,1.24,2.49ZM91.38,178.42c-14.57-13.62-31.73-33.4-49.56-42.52-4.09-2.09-6.85-3.96-9.91.59-10.01,14.89,14.66,32.74,25.41,39.31,20.27,12.4,42.96,20.64,65.29,28.55l1.03-.56c-4.46-26.69-11.25-51.99-20.44-77.38-5.07-14-18.89-50.1-30.48-58.37-4.27-3.04-8.41-2.79-12.7.21-10.01,7.02-2.16,29.11,1.66,38.28,10.33,24.77,27.09,46.19,42.26,68.04,1.64,5.1-4.07,9.36-8.61,7.11-.79-.39-3.16-2.53-3.96-3.28ZM161.22,180.44c-1.33-1.5-1.52-4.95-.88-6.81,16.24-23.31,36.32-48.25,45.15-75.64,3.18-9.85,7.85-29.39-6.87-32.09-8.21-1.51-16.43,12.73-19.85,18.84-11.93,21.36-23.85,54.11-29.93,77.89-3.45,13.5-4.86,27.86-8.23,41.43.6.53,11.04-3.37,12.73-3.98,21.76-7.79,68.5-26.56,78.76-48,2.22-4.65,2.84-10.05.4-14.75-3.15-6.08-6.61-3.29-11.4-.74-18.54,9.83-36.14,29.65-51.1,44.22-2,2.06-6.93,1.73-8.78-.36Z"/></g></svg>